<svg width="260" height="260" viewBox="0 0 260 260" fill="none" xmlns="http://www.w3.org/2000/svg">
<circle cx="130" cy="130" r="130" fill="#EC5924"/>
<circle cx="130" cy="130" r="130" stroke="#F0F1F2"/>
<path d="M194.648 166.48C192.39 163.587 188.86 161.034 186.035 159.134C179.942 155.034 174.383 152.11 168.325 149.841L139.746 70.0144C139.586 69.5038 138.908 67.5279 137.463 65.5237C135.143 62.3034 132.031 60.6016 128.468 60.6016C124.903 60.6016 121.791 62.3034 119.47 65.5248C118.028 67.5268 117.35 69.5015 117.189 70.0144L76.4243 183.549C75.8515 185.141 76.6626 186.903 78.2367 187.482C78.5791 187.609 78.9293 187.669 79.2738 187.669C80.2315 187.669 81.1388 187.203 81.7116 186.417C81.8067 186.299 81.8962 186.175 81.9756 186.039C88.0729 175.629 96.7556 166.909 107.086 160.822C117.727 154.551 129.899 151.236 142.287 151.236C147.921 151.236 153.471 151.917 158.839 153.233L158.838 153.238C160.467 153.681 162.068 154.163 163.599 154.674L168.809 169.271L168.821 169.303C168.842 169.36 170.929 175.01 172.439 178.866C174.21 183.389 177.452 186.393 181.57 187.325C182.429 187.52 183.309 187.615 184.191 187.615C187.506 187.615 190.872 186.279 193.419 183.861C196.011 181.401 197.401 178.264 197.443 174.79C197.476 171.831 196.458 168.802 194.648 166.48ZM104.034 155.517C98.4281 158.821 93.2695 162.839 88.6837 167.441L122.974 71.8703C122.982 71.8431 123.492 70.3824 124.465 69.0191C125.51 67.5562 126.663 66.7432 128.467 66.7432C130.268 66.7432 131.446 67.5687 132.48 69.0214C133.44 70.3689 133.923 71.7548 133.963 71.8794L161.015 147.456C154.95 145.904 148.667 145.098 142.286 145.098C128.828 145.098 115.601 148.701 104.034 155.517ZM189.267 179.383C187.487 181.072 185.046 181.82 182.895 181.333C180.768 180.852 179.103 179.217 178.081 176.604C176.633 172.905 174.635 167.505 174.512 167.17L171.112 157.646C174.934 159.414 178.677 161.558 182.675 164.25C185.125 165.898 188.158 168.075 189.886 170.288C191.418 172.252 192.518 176.295 189.267 179.383Z" fill="white"/>
</svg>
